<svg width="106" height="86" viewBox="0 0 106 86" fill="none" xmlns="http://www.w3.org/2000/svg">
<g clip-path="url(#clip0_729_506)">
<path d="M99.2336 35.2956C99.2336 39.0814 98.4647 42.8301 96.9708 46.3277C95.4769 49.8253 93.2873 53.0032 90.527 55.6802C87.7667 58.3571 84.4897 60.4806 80.8831 61.9293C77.2766 63.3781 73.4111 64.1237 69.5074 64.1237C61.6235 64.1237 54.0626 61.0865 48.4878 55.6802C42.9131 50.2739 39.7813 42.9413 39.7812 35.2956C39.7813 27.6499 42.9131 20.3174 48.4878 14.9111C54.0626 9.50477 61.6235 6.46753 69.5074 6.46753C73.4111 6.46753 77.2766 7.21319 80.8831 8.66194C84.4897 10.1107 87.7667 12.2341 90.527 14.9111C93.2873 17.588 95.4769 20.766 96.9708 24.2636C98.4647 27.7612 99.2336 31.5099 99.2336 35.2956Z" fill="#0C0DBB"/>
<path d="M99.2336 35.2956C99.2336 39.0814 98.4647 42.8301 96.9708 46.3277C95.4769 49.8253 93.2873 53.0032 90.527 55.6802C87.7667 58.3571 84.4897 60.4806 80.8831 61.9293C77.2766 63.3781 73.4111 64.1237 69.5074 64.1237C61.6235 64.1237 54.0626 61.0865 48.4878 55.6802C42.9131 50.2739 39.7813 42.9413 39.7812 35.2956C39.7813 27.6499 42.9131 20.3174 48.4878 14.9111C54.0626 9.50477 61.6235 6.46753 69.5074 6.46753C73.4111 6.46753 77.2766 7.21319 80.8831 8.66194C84.4897 10.1107 87.7667 12.2341 90.527 14.9111C93.2873 17.588 95.4769 20.766 96.9708 24.2636C98.4647 27.7612 99.2336 31.5099 99.2336 35.2956Z" fill="url(#paint0_radial_729_506)"/>
<g opacity="0.75" filter="url(#filter0_f_729_506)">
<path d="M70.399 4.50757C50.8121 4.50749 34.9337 16.8781 34.9336 36.7848C34.9335 56.6917 50.812 66.9332 70.399 66.9331C89.9859 66.933 99.1993 56.6168 99.1992 36.71C99.1992 16.8033 89.9858 4.50761 70.399 4.50757ZM70.399 9.32923C78.7509 9.32555 85.704 12.5421 90.8166 19.2541H49.8889C54.9964 12.5487 62.0553 9.33291 70.399 9.32923ZM44.8177 28.0398H75.6538C68.7723 31.1106 60.8873 44.7619 62.3492 57.9061L62.7586 61.5877C51.2764 58.1468 44.5236 48.9511 44.5245 36.7846C44.5247 33.81 43.8771 30.8566 44.8177 28.0398ZM95.6074 28.1949C96.595 31.1465 96.7173 33.8138 96.7179 36.7846C96.7207 51.4456 84.0782 62.1405 71.8585 62.7187L71.6558 60.3972C70.3113 44.9961 79.1613 32.647 95.6074 28.1949Z" fill="#1E1E1E"/>
</g>
<path d="M69.7662 -0.00024414C50.1792 -0.000320355 34.3008 16.1373 34.3008 36.044C34.3007 55.9509 50.1792 72.0886 69.7662 72.0885C89.3531 72.0885 105.231 55.9508 105.231 36.044C105.231 16.1374 89.353 -0.000203915 69.7662 -0.00024414ZM69.7662 8.58844C78.118 8.58476 85.0712 11.8013 90.1838 18.5133H49.2561C54.3636 11.8079 61.4225 8.59212 69.7662 8.58844ZM44.1849 27.2991H75.021C68.1395 30.3699 60.2545 44.0212 61.7164 57.1653L62.1258 60.8469C50.6436 57.406 43.8908 48.2103 43.8917 36.0438C43.8919 33.0692 43.2442 30.1158 44.1849 27.2991ZM94.9746 27.4542C95.9622 30.4057 96.0845 33.073 96.0851 36.0438C96.0879 50.7048 83.4454 61.3997 71.2257 61.978L71.023 59.6564C69.6785 44.2553 78.5285 31.9062 94.9746 27.4542Z" fill="url(#paint1_radial_729_506)"/>
<path d="M53.3984 74.4404H54.8632V78.8638H60.4306V74.4404H61.8953V85.1453H60.4306V80.139H54.8632V85.1453H53.3984V74.4404Z" fill="#1E1E1E"/>
<path d="M63.0117 74.4404H64.4764V85.1453H63.0117V74.4404Z" fill="#1E1E1E"/>
<path d="M70.4058 74.1489C71.7612 74.1489 72.813 74.506 73.5612 75.2201C74.3093 75.9343 74.7247 76.7456 74.8073 77.6541H73.3936C73.2332 76.9642 72.9126 76.4177 72.4316 76.0144C71.9555 75.6112 71.2851 75.4096 70.4204 75.4096C69.3662 75.4096 68.5136 75.7813 67.8626 76.5246C67.2164 77.263 66.8934 78.3974 66.8934 79.9277C66.8934 81.1811 67.1849 82.1989 67.7678 82.981C68.3557 83.7583 69.2301 84.147 70.3912 84.147C71.46 84.147 72.2737 83.7365 72.8324 82.9154C73.1288 82.4831 73.3498 81.9147 73.4956 81.2102H74.9093C74.783 82.3373 74.3652 83.2822 73.6559 84.045C72.8057 84.9631 71.6592 85.4222 70.2163 85.4222C68.9726 85.4222 67.9281 85.0457 67.0828 84.2927C65.9703 83.2968 65.4141 81.7592 65.4141 79.6799C65.4141 78.101 65.8319 76.8063 66.6675 75.7958C67.5711 74.6979 68.8172 74.1489 70.4058 74.1489Z" fill="#1E1E1E"/>
<path d="M81.1276 80.7584L79.5025 76.029L77.7755 80.7584H81.1276ZM78.7447 74.4404H80.3843L84.2684 85.1453H82.6798L81.594 81.939H77.3601L76.2014 85.1453H74.7148L78.7447 74.4404Z" fill="#1E1E1E"/>
<path d="M88.7615 74.1633C89.7671 74.1633 90.6367 74.3577 91.3703 74.7463C92.4342 75.305 93.0852 76.2839 93.3233 77.683H91.8877C91.7128 76.9009 91.3509 76.3325 90.8019 75.9778C90.2529 75.6183 89.5607 75.4386 88.7251 75.4386C87.734 75.4386 86.8984 75.8102 86.2183 76.5535C85.543 77.2968 85.2053 78.4045 85.2053 79.8765C85.2053 81.1493 85.4847 82.1865 86.0434 82.9881C86.6021 83.7849 87.513 84.1832 88.7761 84.1832C89.7428 84.1832 90.542 83.9039 91.1736 83.3452C91.81 82.7817 92.1355 81.8732 92.15 80.6198H88.7979V79.4174H93.4982V85.1451H92.5654L92.2156 83.7679C91.725 84.3071 91.2902 84.6812 90.9112 84.8901C90.2748 85.2496 89.4659 85.4293 88.4846 85.4293C87.2166 85.4293 86.126 85.0188 85.2126 84.1978C84.2167 83.1679 83.7188 81.7542 83.7188 79.9567C83.7188 78.164 84.2046 76.7381 85.1762 75.6791C86.0992 74.6686 87.2943 74.1633 88.7615 74.1633Z" fill="#1E1E1E"/>
<path d="M99.635 74.1489C101.525 74.1489 102.924 74.7562 103.832 75.9707C104.542 76.9181 104.896 78.1302 104.896 79.607C104.896 81.2054 104.491 82.5341 103.679 83.5931C102.727 84.8368 101.369 85.4587 99.6058 85.4587C97.9589 85.4587 96.6642 84.9146 95.7217 83.8263C94.8813 82.777 94.4611 81.4507 94.4611 79.8475C94.4611 78.3998 94.8206 77.161 95.5396 76.131C96.4626 74.8096 97.8277 74.1489 99.635 74.1489ZM99.7807 84.1615C101.058 84.1615 101.981 83.7049 102.55 82.7916C103.123 81.8734 103.41 80.8191 103.41 79.6289C103.41 78.3706 103.079 77.3577 102.419 76.5901C101.763 75.8226 100.864 75.4388 99.7224 75.4388C98.6148 75.4388 97.7112 75.8201 97.0116 76.5828C96.312 77.3407 95.9622 78.4605 95.9622 79.9423C95.9622 81.1276 96.261 82.1284 96.8585 82.9446C97.461 83.7559 98.435 84.1615 99.7807 84.1615Z" fill="#1E1E1E"/>
<path d="M4.02664 81.0863H6.75206L5.41122 76.8597L4.02664 81.0863ZM4.1651 74.4039H6.70105L10.505 85.1453H8.07104L7.37876 82.9372H3.42181L2.67851 85.1453H0.332031L4.1651 74.4039Z" fill="#1E1E1E"/>
<path d="M13.1109 76.2695V78.6378H15.7489C16.2202 78.6378 16.6015 78.5504 16.893 78.3755C17.1893 78.1957 17.3375 77.8799 17.3375 77.4281C17.3375 76.9277 17.1432 76.5974 16.7545 76.4371C16.4193 76.3253 15.9918 76.2695 15.472 76.2695H13.1109ZM13.1109 80.4159V83.2798H15.7489C16.2202 83.2798 16.5869 83.2166 16.8493 83.0903C17.3254 82.8571 17.5634 82.4101 17.5634 81.7494C17.5634 81.1907 17.3327 80.807 16.8711 80.5981C16.6137 80.4815 16.2517 80.4207 15.7853 80.4159H13.1109ZM16.1861 74.4039C17.5027 74.4234 18.4355 74.8047 18.9844 75.548C19.3148 76.0047 19.48 76.5512 19.48 77.1876C19.48 77.8435 19.3148 78.3706 18.9844 78.769C18.7998 78.9924 18.5278 79.1965 18.1683 79.3811C18.7172 79.5803 19.1302 79.8961 19.4071 80.3284C19.6889 80.7608 19.8297 81.2855 19.8297 81.9025C19.8297 82.5389 19.6694 83.1097 19.3488 83.615C19.1447 83.9502 18.8897 84.2319 18.5836 84.4603C18.2387 84.7226 17.8306 84.9024 17.3594 84.9995C16.893 85.0967 16.3853 85.1453 15.8364 85.1453H10.9685V74.4039H16.1861Z" fill="#1E1E1E"/>
<path d="M20.4102 79.8621C20.4102 77.9869 20.913 76.5416 21.9186 75.5262C22.7931 74.642 23.9056 74.2 25.2561 74.2C27.0634 74.2 28.3848 74.7926 29.2204 75.978C29.6819 76.6436 29.9297 77.3116 29.9637 77.982H27.7192C27.5735 77.467 27.3864 77.0784 27.1581 76.8161C26.75 76.3497 26.1452 76.1165 25.3436 76.1165C24.5274 76.1165 23.8837 76.4468 23.4125 77.1075C22.9412 77.7634 22.7056 78.6937 22.7056 79.8985C22.7056 81.1034 22.9534 82.007 23.4489 82.6094C23.9493 83.2069 24.5833 83.5057 25.3509 83.5057C26.1379 83.5057 26.7379 83.2482 27.1508 82.7333C27.3792 82.4564 27.5686 82.041 27.7192 81.4872H29.9418C29.7475 82.658 29.2495 83.6102 28.4479 84.3437C27.6512 85.0773 26.6286 85.4441 25.38 85.4441C23.8351 85.4441 22.6206 84.9486 21.7364 83.9575C20.8522 82.9616 20.4102 81.5965 20.4102 79.8621Z" fill="#1E1E1E"/>
<path d="M40.6118 75.9788C40.3009 76.2849 39.7128 77.195 39.159 77.982C38.6051 78.7642 38.1412 79.5731 37.7671 80.4087C37.4708 81.0645 37.2036 81.8661 36.9655 82.8134C36.7275 83.7608 36.6084 84.5381 36.6084 85.1454H34.4514C34.5146 83.2507 35.1364 81.2807 36.317 79.2354C37.0797 77.9675 38.0301 76.7197 38.5451 76.2193H32.9648L32.994 74.3538H40.6118L40.6118 75.9788Z" fill="#1E1E1E"/>
<path d="M48.0308 74.1489C49.3862 74.1489 50.438 74.506 51.1862 75.2201C51.9343 75.9343 52.3497 76.7456 52.4323 77.6541H51.0186C50.8582 76.9642 50.5376 76.4177 50.0566 76.0144C49.5805 75.6112 48.9101 75.4096 48.0454 75.4096C46.9912 75.4096 46.1386 75.7813 45.4876 76.5246C44.8414 77.263 44.5184 78.3974 44.5184 79.9277C44.5184 81.1811 44.8099 82.1989 45.3928 82.981C45.9807 83.7583 46.8551 84.147 48.0162 84.147C49.085 84.147 49.8988 83.7365 50.4574 82.9154C50.7538 82.4831 50.9748 81.9147 51.1206 81.2102H52.5343C52.408 82.3373 51.9902 83.2822 51.2809 84.045C50.4307 84.9631 49.2842 85.4222 47.8413 85.4222C46.5977 85.4222 45.5532 85.0457 44.7078 84.2927C43.5953 83.2968 43.0391 81.7592 43.0391 79.6799C43.0391 78.101 43.4569 76.8063 44.2925 75.7958C45.1961 74.6979 46.4422 74.1489 48.0308 74.1489Z" fill="#1E1E1E"/>
<path d="M95.2332 26.9692L94.9735 27.4541C95.9612 30.4056 96.0834 33.073 96.084 36.0438C96.0868 50.7048 83.4443 61.3997 71.2245 61.9779L70.8594 62.3958L71.2435 62.3776C83.6829 61.7889 96.4869 50.9348 96.484 36.0438C96.4832 33.062 96.3605 30.3381 95.3529 27.3271L95.2332 26.9692Z" fill="#F9F9F9"/>
<path d="M76.9851 26.8992L75.0198 27.2992C68.1852 30.3491 60.3655 43.8353 61.6912 56.8961C61.7003 56.9859 61.7052 57.0758 61.7152 57.1655L62.1245 60.847L62.5891 61.404L62.1127 57.1213C62.105 57.052 62.1013 56.9825 62.0941 56.9133C61.43 50.501 63.0063 43.9532 65.5983 38.63C68.2183 33.2493 71.8915 29.1332 75.1827 27.6645L76.9851 26.8992Z" fill="white"/>
<path d="M43.8938 26.8992L43.8026 27.1725C42.8178 30.1213 43.4889 33.1275 43.4887 36.044C43.4879 48.3585 50.3794 57.7455 62.0081 61.2304L62.5874 61.404L62.1229 60.847C50.6406 57.4061 43.8878 48.2105 43.8888 36.044C43.889 33.0723 43.243 30.1218 44.1797 27.3075L43.8938 26.8992Z" fill="white"/>
<path d="M69.7662 -0.00024414C50.1792 -0.000320355 34.3008 16.1373 34.3008 36.044C34.3007 55.9509 50.1792 72.0886 69.7662 72.0885C89.3531 72.0885 105.231 55.9508 105.231 36.044C105.231 16.1374 89.353 -0.000203915 69.7662 -0.00024414ZM69.7662 0.399812C89.1333 0.399851 104.831 16.3501 104.831 36.044C104.831 55.7381 89.1333 71.6884 69.7662 71.6885C50.3989 71.6886 34.7008 55.7381 34.7008 36.044C34.7009 16.35 50.399 0.399737 69.7662 0.399812Z" fill="url(#paint2_linear_729_506)"/>
<path d="M43.8947 26.899L44.1802 27.3074L75.019 27.2991L76.9843 26.899H43.8947Z" fill="#E6E6E6"/>
<path d="M49.2529 18.5134L48.4453 18.9135H90.9883L90.1807 18.5134H49.2529Z" fill="#F9F9F9"/>
<g opacity="0.5" filter="url(#filter1_f_729_506)">
<path d="M49.4513 34.3629C49.4513 40.5838 46.9801 46.55 42.5812 50.9489C38.1823 55.3477 32.2162 57.819 25.9952 57.819C19.7742 57.819 13.8081 55.3478 9.40921 50.9489C5.01033 46.55 2.53906 40.5838 2.53906 34.3629C2.53906 28.1419 5.01033 22.1758 9.40921 17.7769C13.8081 13.378 19.7742 10.9067 25.9952 10.9067C32.2162 10.9067 38.1823 13.378 42.5812 17.7769C46.9801 22.1758 49.4513 28.1419 49.4513 34.3629Z" fill="white"/>
</g>
<path d="M47.3342 34.3629C47.3342 40.5838 44.8629 46.55 40.464 50.9489C36.0651 55.3478 30.099 57.819 23.878 57.819C17.6571 57.819 11.6909 55.3478 7.29202 50.9489C2.89314 46.55 0.421876 40.5838 0.421875 34.3629C0.421875 31.2826 1.02859 28.2324 2.20737 25.3866C3.38615 22.5408 5.11392 19.955 7.29202 17.7769C9.47012 15.5988 12.0559 13.871 14.9017 12.6922C17.7476 11.5134 20.7977 10.9067 23.878 10.9067C30.099 10.9067 36.0651 13.378 40.464 17.7769C44.8629 22.1758 47.3342 28.1419 47.3342 34.3629Z" fill="#1E1E1E"/>
<path d="M47.3342 34.3629C47.3342 40.5838 44.8629 46.55 40.464 50.9489C36.0651 55.3478 30.099 57.819 23.878 57.819C17.6571 57.819 11.6909 55.3478 7.29202 50.9489C2.89314 46.55 0.421876 40.5838 0.421875 34.3629C0.421875 31.2826 1.02859 28.2324 2.20737 25.3866C3.38615 22.5408 5.11392 19.955 7.29202 17.7769C9.47012 15.5988 12.0559 13.871 14.9017 12.6922C17.7476 11.5134 20.7977 10.9067 23.878 10.9067C30.099 10.9067 36.0651 13.378 40.464 17.7769C44.8629 22.1758 47.3342 28.1419 47.3342 34.3629Z" fill="url(#paint3_linear_729_506)"/>
<mask id="mask0_729_506" style="mask-type:luminance" maskUnits="userSpaceOnUse" x="0" y="10" width="48" height="48">
<path d="M47.3302 34.3634C47.3302 40.5843 44.859 46.5505 40.4601 50.9494C36.0612 55.3482 30.0951 57.8195 23.8741 57.8195C17.6532 57.8195 11.687 55.3482 7.28811 50.9494C2.88923 46.5505 0.41797 40.5843 0.417969 34.3634C0.417968 31.2831 1.02468 28.2329 2.20346 25.3871C3.38224 22.5413 5.11001 19.9555 7.28811 17.7774C9.46622 15.5993 12.052 13.8715 14.8978 12.6927C17.7437 11.5139 20.7938 10.9072 23.8741 10.9072C26.9544 10.9072 30.0046 11.5139 32.8504 12.6927C35.6962 13.8715 38.282 15.5993 40.4601 17.7774C42.6382 19.9555 44.366 22.5413 45.5448 25.3871C46.7235 28.2329 47.3302 31.2831 47.3302 34.3634Z" fill="white"/>
</mask>
<g mask="url(#mask0_729_506)">
<g filter="url(#filter2_f_729_506)">
<path d="M0.84945 29.9707C0.567893 31.418 0.423427 32.8886 0.417969 34.363C0.41795 37.4434 1.02465 40.4935 2.20341 43.3393C3.38218 46.1852 5.10994 48.771 7.28804 50.9491C9.46614 53.1272 12.0519 54.855 14.8978 56.0338C17.7436 57.2126 20.7937 57.8193 23.874 57.8193C29.5216 57.8177 34.979 55.7786 39.2439 52.0764C43.5087 48.3742 46.2946 43.2575 47.0899 37.6662C46.0318 42.989 43.1608 47.7801 38.9661 51.2233C34.7714 54.6665 29.5126 56.5486 24.0858 56.5491C21.0054 56.5491 17.9553 55.9423 15.1095 54.7635C12.2636 53.5848 9.67785 51.857 7.49975 49.6789C5.32165 47.5007 3.59389 44.9149 2.41512 42.0691C1.23635 39.2233 0.629659 36.1731 0.629678 33.0928C0.633345 32.0484 0.706765 31.0053 0.84945 29.9707Z" fill="url(#paint4_radial_729_506)"/>
</g>
</g>
<mask id="mask1_729_506" style="mask-type:luminance" maskUnits="userSpaceOnUse" x="0" y="10" width="48" height="48">
<path d="M47.3302 34.3634C47.3302 40.5843 44.859 46.5505 40.4601 50.9494C36.0612 55.3482 30.0951 57.8195 23.8741 57.8195C17.6532 57.8195 11.687 55.3482 7.28811 50.9494C2.88924 46.5505 0.41797 40.5843 0.417969 34.3634C0.417968 31.2831 1.02468 28.2329 2.20346 25.3871C3.38224 22.5413 5.11001 19.9555 7.28811 17.7774C9.46622 15.5993 12.052 13.8715 14.8978 12.6927C17.7437 11.5139 20.7938 10.9072 23.8741 10.9072C26.9544 10.9072 30.0046 11.5139 32.8504 12.6927C35.6962 13.8715 38.282 15.5993 40.4601 17.7774C42.6382 19.9555 44.366 22.5413 45.5448 25.3871C46.7235 28.2329 47.3302 31.2831 47.3302 34.3634Z" fill="white"/>
</mask>
<g mask="url(#mask1_729_506)">
<g filter="url(#filter3_f_729_506)">
<path d="M23.8741 10.907C20.7938 10.907 17.7436 11.5137 14.8978 12.6925C12.0519 13.8713 9.46616 15.5991 7.28805 17.7772C5.10995 19.9553 3.38218 22.5411 2.20341 25.387C1.02464 28.2328 0.417947 31.283 0.417969 34.3633C0.420953 37.4656 1.03933 40.5366 2.23731 43.3983C3.43528 46.26 5.18904 48.8557 7.39705 51.035C3.3721 46.6971 1.13547 40.9982 1.1355 35.0806C1.1355 28.8597 3.60676 22.8935 8.00564 18.4947C12.4045 14.0958 18.3707 11.6245 24.5916 11.6245C30.7592 11.6305 36.6762 14.0654 41.0617 18.402C38.8663 16.0378 36.2067 14.1519 33.2494 12.8623C30.292 11.5727 27.1004 10.9071 23.8741 10.907Z" fill="url(#paint5_radial_729_506)"/>
</g>
</g>
<path d="M17.3945 23.3381V33.6687C17.3945 37.5189 20.4636 40.641 24.2509 40.641C28.0381 40.641 31.1088 37.5189 31.1088 33.6687C31.1088 29.8168 28.0377 26.698 24.2509 26.698C22.8814 26.698 21.5929 27.0414 20.5363 27.809V23.3381H17.3945ZM24.3444 29.8329C26.427 29.8329 28.1174 31.546 28.1207 33.6641C28.1249 35.7805 26.4382 37.4998 24.3556 37.5028C22.2746 37.5071 20.583 35.7898 20.578 33.6734C20.578 31.557 22.2622 29.8376 24.3444 29.8329Z" fill="#ADB0B6"/>
<path d="M9.36189 27.1487C5.7187 27.1565 2.77002 30.109 2.77736 33.7527C2.78142 37.3935 5.73835 40.3416 9.38154 40.3354C10.6577 40.3354 11.8495 39.969 12.8581 39.3409V40.4503L15.9627 40.4442V33.7326C15.9586 30.0922 13.0034 27.1426 9.36189 27.1487ZM9.35137 30.1525C11.3449 30.1484 12.9624 31.7629 12.9657 33.7553C12.9657 35.7468 11.3554 37.3649 9.36189 37.3662C7.37003 37.3727 5.75246 35.759 5.7492 33.7654C5.74514 31.7734 7.35788 30.157 9.35137 30.1525Z" fill="#ADB0B6"/>
<path d="M38.4283 27.1487C34.7044 27.1487 31.6836 30.1574 31.6836 33.871C31.6836 37.5826 34.7048 40.59 38.4283 40.59C41.6893 40.59 44.4084 38.2857 45.0219 35.2244H41.9519C41.4015 36.6334 40.0187 37.6841 38.4033 37.6841C36.2838 37.6841 34.5665 35.9728 34.5665 33.8626C34.5665 31.7506 36.2838 30.0411 38.4033 30.0411C40.1872 30.0411 41.6863 31.2471 42.1191 32.89H45.1047C44.629 29.644 41.8229 27.1487 38.4283 27.1487Z" fill="#ADB0B6"/>
<path d="M24.3424 29.6204C22.1472 29.6253 20.3672 31.4418 20.3672 33.6728V33.6737C20.3725 35.9049 22.1603 37.7196 24.3546 37.7151C26.5498 37.7116 28.3325 35.8947 28.3281 33.6635C28.3246 31.4306 26.5377 29.6204 24.3424 29.6204ZM24.3426 29.8327C26.4252 29.8327 28.1156 31.5458 28.1189 33.6639C28.1231 35.7803 26.4364 37.4996 24.3538 37.5026C22.2728 37.5069 20.5812 35.7896 20.5762 33.6732C20.5762 31.5568 22.2603 29.8374 24.3426 29.8327Z" fill="url(#paint6_radial_729_506)"/>
<path d="M38.4007 29.8293C36.1665 29.8293 34.3516 31.6365 34.3516 33.8628C34.3516 36.0875 36.1663 37.8961 38.4007 37.8961C40.0529 37.8961 41.4535 36.8504 42.0703 35.4361L41.9491 35.2244C41.3988 36.6334 40.0159 37.6842 38.4005 37.6842C36.281 37.6842 34.5639 35.9729 34.5639 33.8626C34.5639 31.7507 36.281 30.0411 38.4005 30.0411C40.1844 30.0411 41.6835 31.2471 42.1164 32.89L42.2507 32.6787C41.738 31.0314 40.219 29.8293 38.4007 29.8293Z" fill="url(#paint7_radial_729_506)"/>
<path d="M9.35228 29.9483C7.24873 29.953 5.54259 31.6635 5.54688 33.7658C5.55032 35.8695 7.26176 37.5771 9.36419 37.5702C11.4677 37.5684 13.1712 35.8565 13.1712 33.7552C13.1677 31.6526 11.4562 29.9439 9.35228 29.9483ZM9.35309 30.1525C11.3466 30.1484 12.9641 31.7629 12.9674 33.7552C12.9674 35.7468 11.3571 37.3649 9.3636 37.3661C7.37175 37.3727 5.75417 35.7589 5.75091 33.7654C5.74685 31.7734 7.3596 30.157 9.35309 30.1525Z" fill="white"/>
<path d="M38.4283 27.1487C34.7044 27.1487 31.6836 30.1574 31.6836 33.871C31.6836 37.5826 34.7048 40.5901 38.4283 40.5901C41.6893 40.5901 44.4085 38.2857 45.0221 35.2243L44.7151 35.4361C44.0196 38.2639 41.492 40.3779 38.4285 40.3779C34.8199 40.3779 31.8961 37.4683 31.8961 33.8712C31.8961 30.272 34.8195 27.3606 38.4285 27.3606C41.6313 27.3606 44.2723 29.6572 44.836 32.6786L45.1048 32.89C44.6291 29.644 41.8229 27.1487 38.4283 27.1487Z" fill="url(#paint8_radial_729_506)"/>
<path d="M9.36189 27.1487C5.7187 27.1565 2.77002 30.109 2.77736 33.7527C2.78142 37.3935 5.73835 40.3416 9.38154 40.3354C10.6577 40.3354 11.8495 39.969 12.8581 39.3409L13.0621 38.9737L12.7501 39.168C11.7726 39.7769 10.6185 40.1312 9.38134 40.1312C5.84842 40.1371 2.98532 37.2825 2.98138 33.7521C2.97427 30.2187 5.82932 27.3605 9.36249 27.3529C12.8937 27.347 15.7549 30.2026 15.7589 33.7326V40.2406L15.9627 40.4442V33.7326C15.9586 30.0922 13.0034 27.1426 9.36189 27.1487Z" fill="url(#paint9_radial_729_506)"/>
<path d="M17.3945 23.3381V33.6687C17.3945 37.5189 20.4636 40.641 24.2509 40.641C28.0381 40.641 31.1088 37.5189 31.1088 33.6687C31.1088 29.8168 28.0377 26.698 24.2509 26.698C22.8814 26.698 21.5929 27.0414 20.5363 27.809L20.3275 28.2219L20.6579 27.9821C21.673 27.2445 22.9159 26.9107 24.2511 26.9107C27.925 26.9107 30.8996 29.9313 30.8996 33.6683C30.8996 37.4035 27.9253 40.4283 24.2511 40.4283C20.5768 40.4283 17.6035 37.4036 17.6035 33.6683V23.5507L17.3945 23.3381ZM20.3275 28.2219L20.334 23.5441L20.3275 23.5507V28.2219Z" fill="url(#paint10_radial_729_506)"/>
<path d="M15.7602 40.2407L13.0634 40.2461L12.8594 40.4505L15.964 40.4443L15.7602 40.2407Z" fill="#B3B3B3"/>
<path d="M41.9492 35.2244L42.0704 35.4361H44.7124L45.0194 35.2244H41.9492Z" fill="white"/>
<path d="M42.2516 32.6787L42.1172 32.89H45.1028L44.8341 32.6787H42.2516Z" fill="#87898B"/>
<path d="M17.3945 23.3381L17.6035 23.5507H20.3275L20.5363 23.3381H17.3945Z" fill="white"/>
<path d="M13.0634 38.9739L12.8594 39.341V40.4505L13.0634 40.246V38.9739Z" fill="#CCCCCC"/>
<path d="M20.533 23.3381L20.3307 23.544L20.3242 28.2219L20.533 27.809L20.533 23.3381Z" fill="#B3B3B3"/>
<path d="M17.3945 23.3381V33.6687C17.3945 37.5189 20.4636 40.641 24.2509 40.641C28.0381 40.641 31.1088 37.5189 31.1088 33.6687C31.1088 29.8168 28.0377 26.698 24.2509 26.698C22.8814 26.698 21.5929 27.0414 20.5363 27.809L20.3275 28.2219L20.6579 27.9821C21.673 27.2445 22.9159 26.9107 24.2511 26.9107C27.925 26.9107 30.8996 29.9313 30.8996 33.6683C30.8996 37.4035 27.9253 40.4283 24.2511 40.4283C20.5768 40.4283 17.6035 37.4036 17.6035 33.6683V23.5507L17.3945 23.3381ZM20.3275 28.2219L20.334 23.5441L20.3275 23.5507V28.2219Z" fill="url(#paint11_linear_729_506)"/>
</g>
<defs>
<filter id="filter0_f_729_506" x="34.2185" y="3.79247" width="65.6958" height="63.8557" filterUnits="userSpaceOnUse" color-interpolation-filters="sRGB">
<feFlood flood-opacity="0" result="BackgroundImageFix"/>
<feBlend mode="normal" in="SourceGraphic" in2="BackgroundImageFix" result="shape"/>
<feGaussianBlur stdDeviation="0.357548" result="effect1_foregroundBlur_729_506"/>
</filter>
<filter id="filter1_f_729_506" x="0.662572" y="9.03025" width="50.6652" height="50.6652" filterUnits="userSpaceOnUse" color-interpolation-filters="sRGB">
<feFlood flood-opacity="0" result="BackgroundImageFix"/>
<feBlend mode="normal" in="SourceGraphic" in2="BackgroundImageFix" result="shape"/>
<feGaussianBlur stdDeviation="0.938245" result="effect1_foregroundBlur_729_506"/>
</filter>
<filter id="filter2_f_729_506" x="-0.312332" y="29.2404" width="48.1325" height="29.3092" filterUnits="userSpaceOnUse" color-interpolation-filters="sRGB">
<feFlood flood-opacity="0" result="BackgroundImageFix"/>
<feBlend mode="normal" in="SourceGraphic" in2="BackgroundImageFix" result="shape"/>
<feGaussianBlur stdDeviation="0.365151" result="effect1_foregroundBlur_729_506"/>
</filter>
<filter id="filter3_f_729_506" x="-0.459912" y="10.0291" width="42.3994" height="41.8837" filterUnits="userSpaceOnUse" color-interpolation-filters="sRGB">
<feFlood flood-opacity="0" result="BackgroundImageFix"/>
<feBlend mode="normal" in="SourceGraphic" in2="BackgroundImageFix" result="shape"/>
<feGaussianBlur stdDeviation="0.43894" result="effect1_foregroundBlur_729_506"/>
</filter>
<radialGradient id="paint0_radial_729_506" cx="0" cy="0" r="1" gradientUnits="userSpaceOnUse" gradientTransform="translate(87.5976 8.58843) scale(35.4652 28.8281)">
<stop stop-color="#A7B5FD"/>
<stop offset="1" stop-color="#A7B5FD" stop-opacity="0"/>
</radialGradient>
<radialGradient id="paint1_radial_729_506" cx="0" cy="0" r="1" gradientUnits="userSpaceOnUse" gradientTransform="translate(86.8788 14.3505) scale(87.5485 61.2671)">
<stop stop-color="white"/>
<stop offset="0.517255" stop-color="white"/>
<stop offset="1" stop-color="#3D4955"/>
</radialGradient>
<linearGradient id="paint2_linear_729_506" x1="75.0146" y1="0.391737" x2="62.8206" y2="12.5857" gradientUnits="userSpaceOnUse">
<stop stop-color="white"/>
<stop offset="1" stop-color="#1A1A1A"/>
</linearGradient>
<linearGradient id="paint3_linear_729_506" x1="23.878" y1="57.819" x2="23.878" y2="41.7109" gradientUnits="userSpaceOnUse">
<stop stop-color="#120E59"/>
<stop offset="1" stop-color="#120E59" stop-opacity="0"/>
</linearGradient>
<radialGradient id="paint4_radial_729_506" cx="0" cy="0" r="1" gradientUnits="userSpaceOnUse" gradientTransform="translate(23.7539 56.5467) scale(13.8139 13.9243)">
<stop stop-color="#A6B6E5"/>
<stop offset="0.519567" stop-color="#0F2287"/>
<stop offset="1" stop-color="#0F2287" stop-opacity="0"/>
</radialGradient>
<radialGradient id="paint5_radial_729_506" cx="0" cy="0" r="1" gradientUnits="userSpaceOnUse" gradientTransform="translate(10.8426 14.8601) scale(20.8486 20.5907)">
<stop stop-color="white"/>
<stop offset="1" stop-color="white" stop-opacity="0"/>
</radialGradient>
<radialGradient id="paint6_radial_729_506" cx="0" cy="0" r="1" gradientTransform="matrix(3.81125 -6.7128 7.02028 4.12162 25.5071 37.3182)" gradientUnits="userSpaceOnUse">
<stop stop-color="white"/>
<stop offset="1" stop-color="#848688"/>
</radialGradient>
<radialGradient id="paint7_radial_729_506" cx="0" cy="0" r="1" gradientUnits="userSpaceOnUse" gradientTransform="translate(39.2557 37.412) scale(3.94959 4.03339)">
<stop stop-color="white"/>
<stop offset="1" stop-color="#848688"/>
</radialGradient>
<radialGradient id="paint8_radial_729_506" cx="0" cy="0" r="1" gradientUnits="userSpaceOnUse" gradientTransform="translate(32.9576 32.4181) scale(6.7106 6.7207)">
<stop stop-color="white"/>
<stop offset="1" stop-color="#848688"/>
</radialGradient>
<radialGradient id="paint9_radial_729_506" cx="0" cy="0" r="1" gradientUnits="userSpaceOnUse" gradientTransform="translate(4.66862 29.549) scale(6.59268 6.64775)">
<stop stop-color="white"/>
<stop offset="1" stop-color="#848688"/>
</radialGradient>
<radialGradient id="paint10_radial_729_506" cx="0" cy="0" r="1" gradientUnits="userSpaceOnUse" gradientTransform="translate(24.2517 26.698) scale(6.85715 8.65143)">
<stop stop-color="white"/>
<stop offset="1" stop-color="white" stop-opacity="0"/>
</radialGradient>
<linearGradient id="paint11_linear_729_506" x1="17.3946" y1="23.3381" x2="17.3946" y2="35.7011" gradientUnits="userSpaceOnUse">
<stop stop-color="white"/>
<stop offset="1" stop-color="white" stop-opacity="0"/>
</linearGradient>
<clipPath id="clip0_729_506">
<rect width="105.23" height="85.4589" fill="white"/>
</clipPath>
</defs>
</svg>
