<svg width="832" height="256" viewBox="0 0 832 256" fill="none" xmlns="http://www.w3.org/2000/svg">
<mask id="path-1-outside-1_729_448" maskUnits="userSpaceOnUse" x="310" y="81" width="497" height="70" fill="black">
<rect fill="white" x="310" y="81" width="497" height="70"/>
<path d="M314 81H807V151H314V81Z"/>
</mask>
<path d="M314 81H807V151H314V81Z" fill="#3491E8" fill-opacity="0.25"/>
<path d="M314 151H318V81H314H310V151H314Z" fill="white" fill-opacity="0.8" mask="url(#path-1-outside-1_729_448)"/>
<rect x="265.5" width="301" height="40" rx="20" fill="#011846" fill-opacity="0.3"/>
<path d="M283.564 29V11.96H286.156V20.096L293.332 11.96H296.476L289.948 19.4L296.908 29H293.86L288.22 21.224L286.156 23.528V29H283.564ZM298.816 29V16.232H301.36V29H298.816ZM298.768 14.384V11.84H301.408V14.384H298.768ZM309.258 29.288C308.17 29.288 307.218 29.016 306.402 28.472C305.602 27.928 304.986 27.16 304.554 26.168C304.138 25.16 303.93 23.976 303.93 22.616C303.93 21.256 304.146 20.08 304.578 19.088C305.01 18.08 305.626 17.304 306.426 16.76C307.226 16.216 308.17 15.944 309.258 15.944C310.138 15.944 310.922 16.128 311.61 16.496C312.298 16.864 312.818 17.376 313.17 18.032V11.96H315.714V29H313.338L313.266 27.08C312.914 27.768 312.378 28.312 311.658 28.712C310.954 29.096 310.154 29.288 309.258 29.288ZM309.93 27.08C310.618 27.08 311.202 26.904 311.682 26.552C312.162 26.2 312.53 25.688 312.786 25.016C313.042 24.344 313.17 23.544 313.17 22.616C313.17 21.656 313.042 20.848 312.786 20.192C312.53 19.52 312.162 19.016 311.682 18.68C311.202 18.328 310.618 18.152 309.93 18.152C308.906 18.152 308.09 18.552 307.482 19.352C306.874 20.136 306.57 21.224 306.57 22.616C306.57 23.992 306.874 25.08 307.482 25.88C308.09 26.68 308.906 27.08 309.93 27.08ZM324.009 29.288C322.809 29.288 321.793 29.104 320.961 28.736C320.145 28.368 319.513 27.864 319.065 27.224C318.617 26.568 318.361 25.816 318.297 24.968L320.913 24.848C321.041 25.552 321.345 26.112 321.825 26.528C322.305 26.944 323.033 27.152 324.009 27.152C324.809 27.152 325.441 27.024 325.905 26.768C326.369 26.512 326.601 26.104 326.601 25.544C326.601 25.24 326.521 24.984 326.361 24.776C326.217 24.552 325.929 24.368 325.497 24.224C325.065 24.064 324.425 23.912 323.577 23.768C322.313 23.528 321.321 23.248 320.601 22.928C319.881 22.608 319.369 22.2 319.065 21.704C318.761 21.208 318.609 20.608 318.609 19.904C318.609 18.736 319.041 17.784 319.905 17.048C320.785 16.312 322.049 15.944 323.697 15.944C324.801 15.944 325.729 16.136 326.481 16.52C327.233 16.888 327.817 17.392 328.233 18.032C328.665 18.656 328.937 19.36 329.049 20.144L326.433 20.288C326.353 19.84 326.193 19.456 325.953 19.136C325.729 18.8 325.425 18.544 325.041 18.368C324.657 18.176 324.201 18.08 323.673 18.08C322.857 18.08 322.249 18.24 321.849 18.56C321.449 18.88 321.249 19.296 321.249 19.808C321.249 20.192 321.337 20.504 321.513 20.744C321.705 20.984 322.009 21.184 322.425 21.344C322.841 21.488 323.393 21.616 324.081 21.728C325.409 21.952 326.449 22.232 327.201 22.568C327.953 22.888 328.481 23.288 328.785 23.768C329.089 24.248 329.241 24.832 329.241 25.52C329.241 26.32 329.017 27 328.569 27.56C328.121 28.12 327.505 28.552 326.721 28.856C325.937 29.144 325.033 29.288 324.009 29.288ZM338.15 29V11.96H341.702L346.766 25.952L351.83 11.96H355.382V29H352.79V16.52L348.206 28.976H345.326L340.742 16.52V29H338.15ZM362.992 29.288C361.712 29.288 360.688 28.864 359.92 28.016C359.168 27.152 358.792 25.96 358.792 24.44V16.232H361.336V23.792C361.336 24.944 361.536 25.792 361.936 26.336C362.336 26.88 362.944 27.152 363.76 27.152C364.688 27.152 365.408 26.856 365.92 26.264C366.448 25.656 366.712 24.808 366.712 23.72V16.232H369.256V29H366.88L366.832 25.664L367.192 25.808C366.968 26.928 366.496 27.792 365.776 28.4C365.056 28.992 364.128 29.288 362.992 29.288ZM375.639 29C374.807 29 374.135 28.784 373.623 28.352C373.111 27.92 372.855 27.232 372.855 26.288V11.96H375.399V26.048C375.399 26.336 375.471 26.552 375.615 26.696C375.775 26.84 375.999 26.912 376.287 26.912H377.295V29H375.639ZM383.798 29C382.582 29 381.686 28.72 381.11 28.16C380.534 27.6 380.246 26.728 380.246 25.544V13.232H382.79V25.352C382.79 25.944 382.918 26.352 383.174 26.576C383.43 26.8 383.822 26.912 384.35 26.912H386.174V29H383.798ZM378.302 18.32V16.232H386.174V18.32H378.302ZM388.605 29V16.232H391.149V29H388.605ZM388.557 14.384V11.84H391.197V14.384H388.557ZM399.767 29.288C398.551 29.288 397.487 29.016 396.575 28.472C395.663 27.928 394.959 27.152 394.463 26.144C393.967 25.136 393.719 23.96 393.719 22.616C393.719 21.272 393.967 20.104 394.463 19.112C394.959 18.104 395.663 17.328 396.575 16.784C397.487 16.224 398.551 15.944 399.767 15.944C400.807 15.944 401.727 16.128 402.527 16.496C403.343 16.848 403.999 17.368 404.495 18.056C405.007 18.744 405.335 19.584 405.479 20.576L402.815 20.72C402.687 19.888 402.351 19.256 401.807 18.824C401.263 18.376 400.583 18.152 399.767 18.152C398.695 18.152 397.855 18.552 397.247 19.352C396.655 20.136 396.359 21.224 396.359 22.616C396.359 24.008 396.655 25.104 397.247 25.904C397.855 26.688 398.695 27.08 399.767 27.08C400.583 27.08 401.263 26.856 401.807 26.408C402.351 25.944 402.687 25.248 402.815 24.32L405.479 24.464C405.335 25.44 405.007 26.288 404.495 27.008C403.999 27.728 403.343 28.288 402.527 28.688C401.727 29.088 400.807 29.288 399.767 29.288ZM412 29.288C410.72 29.288 409.696 28.864 408.928 28.016C408.176 27.152 407.8 25.96 407.8 24.44V16.232H410.344V23.792C410.344 24.944 410.544 25.792 410.944 26.336C411.344 26.88 411.952 27.152 412.768 27.152C413.696 27.152 414.416 26.856 414.928 26.264C415.456 25.656 415.72 24.808 415.72 23.72V16.232H418.264V29H415.888L415.84 25.664L416.2 25.808C415.976 26.928 415.504 27.792 414.784 28.4C414.064 28.992 413.136 29.288 412 29.288ZM424.647 29C423.815 29 423.143 28.784 422.631 28.352C422.119 27.92 421.863 27.232 421.863 26.288V11.96H424.407V26.048C424.407 26.336 424.479 26.552 424.623 26.696C424.783 26.84 425.007 26.912 425.295 26.912H426.303V29H424.647ZM432.805 29C431.589 29 430.693 28.72 430.117 28.16C429.541 27.6 429.253 26.728 429.253 25.544V13.232H431.797V25.352C431.797 25.944 431.925 26.352 432.181 26.576C432.437 26.8 432.829 26.912 433.357 26.912H435.181V29H432.805ZM427.309 18.32V16.232H435.181V18.32H427.309ZM441.859 29.288C440.579 29.288 439.555 28.864 438.787 28.016C438.035 27.152 437.659 25.96 437.659 24.44V16.232H440.203V23.792C440.203 24.944 440.403 25.792 440.803 26.336C441.203 26.88 441.811 27.152 442.627 27.152C443.555 27.152 444.275 26.856 444.787 26.264C445.315 25.656 445.579 24.808 445.579 23.72V16.232H448.123V29H445.747L445.699 25.664L446.059 25.808C445.835 26.928 445.363 27.792 444.643 28.4C443.923 28.992 442.995 29.288 441.859 29.288ZM451.722 29V16.232H454.05L454.146 19.616L453.93 19.544C454.106 18.392 454.458 17.552 454.986 17.024C455.53 16.496 456.258 16.232 457.17 16.232H458.394V18.512H457.17C456.53 18.512 455.994 18.616 455.562 18.824C455.13 19.032 454.802 19.352 454.578 19.784C454.37 20.216 454.266 20.776 454.266 21.464V29H451.722ZM463.829 29.288C462.501 29.288 461.437 28.984 460.637 28.376C459.853 27.768 459.461 26.912 459.461 25.808C459.461 24.704 459.789 23.848 460.445 23.24C461.117 22.616 462.149 22.168 463.541 21.896L467.933 21.056C467.933 20.064 467.701 19.328 467.237 18.848C466.773 18.352 466.085 18.104 465.173 18.104C464.357 18.104 463.717 18.288 463.253 18.656C462.789 19.008 462.469 19.536 462.293 20.24L459.677 20.072C459.917 18.792 460.509 17.784 461.453 17.048C462.413 16.312 463.653 15.944 465.173 15.944C466.901 15.944 468.213 16.408 469.109 17.336C470.021 18.248 470.477 19.536 470.477 21.2V26.168C470.477 26.472 470.525 26.688 470.621 26.816C470.733 26.928 470.909 26.984 471.149 26.984H471.605V29C471.525 29.016 471.397 29.032 471.221 29.048C471.045 29.064 470.861 29.072 470.669 29.072C470.125 29.072 469.653 28.984 469.253 28.808C468.869 28.632 468.581 28.344 468.389 27.944C468.197 27.528 468.101 26.976 468.101 26.288L468.365 26.408C468.237 26.968 467.957 27.464 467.525 27.896C467.109 28.328 466.573 28.672 465.917 28.928C465.277 29.168 464.581 29.288 463.829 29.288ZM464.237 27.272C465.005 27.272 465.661 27.128 466.205 26.84C466.749 26.536 467.173 26.12 467.477 25.592C467.781 25.064 467.933 24.464 467.933 23.792V22.976L464.189 23.696C463.421 23.84 462.877 24.072 462.557 24.392C462.253 24.696 462.101 25.088 462.101 25.568C462.101 26.112 462.285 26.536 462.653 26.84C463.037 27.128 463.565 27.272 464.237 27.272ZM476.373 29C475.541 29 474.869 28.784 474.357 28.352C473.845 27.92 473.589 27.232 473.589 26.288V11.96H476.133V26.048C476.133 26.336 476.205 26.552 476.349 26.696C476.509 26.84 476.733 26.912 477.021 26.912H478.029V29H476.373ZM489.822 29L485.31 11.96H488.07L491.382 25.424L494.694 11.96H497.334L500.646 25.424L503.934 11.96H506.742L502.206 29H499.182L496.014 16.568L492.846 29H489.822ZM513.626 29.288C512.41 29.288 511.346 29.016 510.434 28.472C509.522 27.928 508.818 27.152 508.322 26.144C507.826 25.136 507.578 23.96 507.578 22.616C507.578 21.256 507.826 20.08 508.322 19.088C508.818 18.096 509.522 17.328 510.434 16.784C511.346 16.224 512.41 15.944 513.626 15.944C514.842 15.944 515.906 16.224 516.818 16.784C517.73 17.328 518.434 18.096 518.93 19.088C519.426 20.08 519.674 21.256 519.674 22.616C519.674 23.96 519.426 25.136 518.93 26.144C518.434 27.152 517.73 27.928 516.818 28.472C515.906 29.016 514.842 29.288 513.626 29.288ZM513.626 27.08C514.714 27.08 515.554 26.688 516.146 25.904C516.738 25.104 517.034 24.008 517.034 22.616C517.034 21.224 516.738 20.136 516.146 19.352C515.554 18.552 514.714 18.152 513.626 18.152C512.554 18.152 511.714 18.552 511.106 19.352C510.514 20.136 510.218 21.224 510.218 22.616C510.218 24.008 510.514 25.104 511.106 25.904C511.714 26.688 512.554 27.08 513.626 27.08ZM522.245 29V16.232H524.573L524.669 19.616L524.453 19.544C524.629 18.392 524.981 17.552 525.509 17.024C526.053 16.496 526.781 16.232 527.693 16.232H528.917V18.512H527.693C527.053 18.512 526.517 18.616 526.085 18.824C525.653 19.032 525.325 19.352 525.101 19.784C524.893 20.216 524.789 20.776 524.789 21.464V29H522.245ZM533.795 29C532.963 29 532.291 28.784 531.779 28.352C531.267 27.92 531.011 27.232 531.011 26.288V11.96H533.555V26.048C533.555 26.336 533.627 26.552 533.771 26.696C533.931 26.84 534.155 26.912 534.443 26.912H535.451V29H533.795ZM542.156 29.288C541.068 29.288 540.116 29.016 539.3 28.472C538.5 27.928 537.884 27.16 537.452 26.168C537.036 25.16 536.828 23.976 536.828 22.616C536.828 21.256 537.044 20.08 537.476 19.088C537.908 18.08 538.524 17.304 539.324 16.76C540.124 16.216 541.068 15.944 542.156 15.944C543.036 15.944 543.82 16.128 544.508 16.496C545.196 16.864 545.716 17.376 546.068 18.032V11.96H548.612V29H546.236L546.164 27.08C545.812 27.768 545.276 28.312 544.556 28.712C543.852 29.096 543.052 29.288 542.156 29.288ZM542.828 27.08C543.516 27.08 544.1 26.904 544.58 26.552C545.06 26.2 545.428 25.688 545.684 25.016C545.94 24.344 546.068 23.544 546.068 22.616C546.068 21.656 545.94 20.848 545.684 20.192C545.428 19.52 545.06 19.016 544.58 18.68C544.1 18.328 543.516 18.152 542.828 18.152C541.804 18.152 540.988 18.552 540.38 19.352C539.772 20.136 539.468 21.224 539.468 22.616C539.468 23.992 539.772 25.08 540.38 25.88C540.988 26.68 541.804 27.08 542.828 27.08Z" fill="#3491E8"/>
<path d="M89.0228 108.64C89.0228 112.533 88.4361 115.973 87.2628 118.96C86.1428 121.947 84.5428 124.453 82.4628 126.48C84.2228 129.2 85.1028 131.84 85.1028 134.4C85.1028 136.587 84.2495 138.4 82.5428 139.84C80.8895 141.28 78.9961 142 76.8628 142C75.6361 142 74.5161 141.813 73.5028 141.44C72.4895 141.067 71.3961 140.427 70.2228 139.52C69.2095 138.72 68.2495 137.627 67.3428 136.24C66.4361 134.853 65.7161 133.413 65.1828 131.92C63.4228 131.707 61.6628 131.253 59.9028 130.56C60.2228 132.267 60.3828 133.573 60.3828 134.48C60.3828 139.547 57.7428 142.08 52.4628 142.08C48.0361 142.08 44.9161 139.493 43.1028 134.32C41.2895 129.147 40.3828 122.827 40.3828 115.36C40.3828 110.293 41.2895 105.547 43.1028 101.12C44.9695 96.64 47.7961 93.04 51.5828 90.32C55.3695 87.5467 59.9828 86.16 65.4228 86.16C69.7961 86.16 73.7695 87.0933 77.3428 88.96C80.9161 90.7733 83.7428 93.3867 85.8228 96.8C87.9561 100.213 89.0228 104.16 89.0228 108.64ZM59.1028 112.4C59.1028 114.213 59.8228 115.813 61.2628 117.2C62.7028 118.533 64.3561 119.2 66.2228 119.2C68.1428 119.2 69.7961 118.533 71.1828 117.2C72.6228 115.813 73.3428 114.213 73.3428 112.4C73.3428 110.533 72.6228 108.933 71.1828 107.6C69.7961 106.213 68.1428 105.52 66.2228 105.52C64.3561 105.52 62.7028 106.213 61.2628 107.6C59.8228 108.987 59.1028 110.587 59.1028 112.4ZM105.017 142C100.857 142 97.4439 141.067 94.7772 139.2C92.1105 137.28 90.7772 134.533 90.7772 130.96C90.7772 127.867 92.1372 125.413 94.8572 123.6C97.5772 121.787 100.964 120.88 105.017 120.88C106.511 120.88 107.897 121.013 109.177 121.28C110.511 121.493 111.417 121.76 111.897 122.08C111.897 120.747 111.337 119.653 110.217 118.8C109.097 117.893 107.391 117.44 105.097 117.44C104.084 117.44 103.257 117.52 102.617 117.68C101.977 117.84 101.284 118.08 100.537 118.4C99.7905 118.72 99.0972 118.96 98.4572 119.12C97.8705 119.28 97.0705 119.36 96.0572 119.36C94.3505 119.36 93.0172 118.933 92.0572 118.08C91.0972 117.173 90.6172 115.813 90.6172 114C90.6172 111.92 91.3639 110.16 92.8572 108.72C94.4039 107.28 96.3239 106.213 98.6172 105.52C100.911 104.773 103.204 104.4 105.497 104.4C110.031 104.4 113.817 105.253 116.857 106.96C119.951 108.613 122.217 110.827 123.657 113.6C125.151 116.373 125.897 119.44 125.897 122.8C125.897 124.613 125.737 126.293 125.417 127.84C125.151 129.387 124.777 130.587 124.297 131.44C125.044 132.08 125.604 132.827 125.977 133.68C126.404 134.533 126.617 135.413 126.617 136.32C126.617 137.867 126.084 139.2 125.017 140.32C124.004 141.44 122.644 142 120.937 142C119.657 142 118.617 141.813 117.817 141.44C117.017 141.067 116.164 140.48 115.257 139.68C113.924 140.48 112.457 141.067 110.857 141.44C109.311 141.813 107.364 142 105.017 142ZM106.617 133.92C107.737 133.92 108.617 133.68 109.257 133.2C109.951 132.72 110.297 132.133 110.297 131.44C110.297 130.747 109.951 130.16 109.257 129.68C108.617 129.2 107.737 128.96 106.617 128.96C105.497 128.96 104.591 129.2 103.897 129.68C103.257 130.16 102.937 130.747 102.937 131.44C102.937 132.133 103.257 132.72 103.897 133.2C104.591 133.68 105.497 133.92 106.617 133.92ZM139.977 103.2C137.364 103.2 135.151 102.267 133.337 100.4C131.524 98.48 130.617 96.16 130.617 93.44C130.617 90.7733 131.524 88.5067 133.337 86.64C135.151 84.72 137.364 83.76 139.977 83.76C142.537 83.76 144.724 84.72 146.537 86.64C148.404 88.5067 149.337 90.7733 149.337 93.44C149.337 96.16 148.404 98.48 146.537 100.4C144.724 102.267 142.537 103.2 139.977 103.2ZM139.977 142C137.791 142 136.164 141.387 135.097 140.16C134.084 138.88 133.391 136.987 133.017 134.48C132.697 131.92 132.537 128.293 132.537 123.6C132.537 119.653 132.724 116.533 133.097 114.24C133.524 111.947 134.271 110.24 135.337 109.12C136.404 108 137.951 107.44 139.977 107.44C142.164 107.44 143.764 108.08 144.777 109.36C145.844 110.587 146.537 112.48 146.857 115.04C147.231 117.547 147.417 121.147 147.417 125.84C147.417 129.787 147.204 132.907 146.777 135.2C146.404 137.493 145.684 139.2 144.617 140.32C143.551 141.44 142.004 142 139.977 142ZM167.149 142C162.456 142 158.722 141.227 155.949 139.68C153.176 138.133 151.789 136.133 151.789 133.68C151.789 132.08 152.322 130.853 153.389 130C154.509 129.093 155.922 128.64 157.629 128.64C158.589 128.64 159.362 128.773 159.949 129.04C160.536 129.307 161.122 129.68 161.709 130.16C162.136 130.533 162.482 130.8 162.749 130.96C163.069 131.12 163.442 131.2 163.869 131.2C164.989 131.2 165.549 130.8 165.549 130C165.549 129.253 165.256 128.693 164.669 128.32C164.082 127.893 163.069 127.387 161.629 126.8C160.296 126.267 159.416 125.893 158.989 125.68C156.536 124.507 154.722 123.12 153.549 121.52C152.376 119.92 151.789 118.213 151.789 116.4C151.789 114.373 152.509 112.453 153.949 110.64C155.442 108.773 157.522 107.28 160.189 106.16C162.909 104.987 166.029 104.4 169.549 104.4C172.589 104.4 175.336 104.827 177.789 105.68C180.296 106.533 182.269 107.707 183.709 109.2C185.149 110.64 185.869 112.24 185.869 114C185.869 115.653 185.336 116.907 184.269 117.76C183.256 118.613 181.869 119.04 180.109 119.04C179.416 119.04 178.856 118.987 178.429 118.88C178.056 118.72 177.549 118.48 176.909 118.16C176.536 117.947 176.136 117.76 175.709 117.6C175.336 117.44 174.909 117.36 174.429 117.36C174.002 117.36 173.629 117.52 173.309 117.84C172.989 118.107 172.829 118.453 172.829 118.88C172.829 119.68 173.416 120.267 174.589 120.64C177.682 121.653 180.162 122.933 182.029 124.48C183.949 126.027 184.909 128.16 184.909 130.88C184.909 134.347 183.282 137.067 180.029 139.04C176.829 141.013 172.536 142 167.149 142ZM196.774 103.2C194.161 103.2 191.947 102.267 190.134 100.4C188.321 98.48 187.414 96.16 187.414 93.44C187.414 90.7733 188.321 88.5067 190.134 86.64C191.947 84.72 194.161 83.76 196.774 83.76C199.334 83.76 201.521 84.72 203.334 86.64C205.201 88.5067 206.134 90.7733 206.134 93.44C206.134 96.16 205.201 98.48 203.334 100.4C201.521 102.267 199.334 103.2 196.774 103.2ZM196.774 142C194.587 142 192.961 141.387 191.894 140.16C190.881 138.88 190.187 136.987 189.814 134.48C189.494 131.92 189.334 128.293 189.334 123.6C189.334 119.653 189.521 116.533 189.894 114.24C190.321 111.947 191.067 110.24 192.134 109.12C193.201 108 194.747 107.44 196.774 107.44C198.961 107.44 200.561 108.08 201.574 109.36C202.641 110.587 203.334 112.48 203.654 115.04C204.027 117.547 204.214 121.147 204.214 125.84C204.214 129.787 204.001 132.907 203.574 135.2C203.201 137.493 202.481 139.2 201.414 140.32C200.347 141.44 198.801 142 196.774 142ZM240.967 142C239.047 142 237.607 141.467 236.647 140.4C235.741 139.333 235.181 138.027 234.967 136.48C234.754 134.933 234.647 132.933 234.647 130.48C234.647 127.333 234.221 124.907 233.367 123.2C232.514 121.493 231.127 120.64 229.207 120.64C227.447 120.64 226.114 121.493 225.207 123.2C224.354 124.853 223.927 127.147 223.927 130.08C223.927 132.907 223.847 135.04 223.687 136.48C223.527 137.92 222.994 139.2 222.087 140.32C221.181 141.387 219.687 141.92 217.607 141.92C214.567 141.92 212.434 139.973 211.207 136.08C209.981 132.133 209.367 127.52 209.367 122.24C209.367 109.44 212.061 103.04 217.447 103.04C218.941 103.04 220.167 103.413 221.127 104.16C222.087 104.853 222.754 105.867 223.127 107.2C223.821 106.453 224.887 105.787 226.327 105.2C227.821 104.613 229.394 104.32 231.047 104.32C236.914 104.32 241.287 106.453 244.167 110.72C247.101 114.987 248.567 120.773 248.567 128.08C248.567 132.4 248.007 135.813 246.887 138.32C245.767 140.773 243.794 142 240.967 142ZM268.448 155.68C265.354 155.68 262.821 155.093 260.848 153.92C258.874 152.8 257.888 151.253 257.888 149.28C257.888 147.52 258.554 146.08 259.888 144.96C261.274 143.893 263.008 143.36 265.088 143.36C265.461 143.36 266.074 143.413 266.928 143.52C267.994 143.68 268.981 143.76 269.888 143.76C272.181 143.76 274.154 143.36 275.808 142.56C277.514 141.813 278.554 140.8 278.928 139.52C278.074 140 276.874 140.4 275.328 140.72C273.781 141.04 272.128 141.2 270.368 141.2C265.834 141.2 262.101 140.32 259.168 138.56C256.288 136.8 254.208 134.64 252.928 132.08C251.648 129.467 251.008 126.907 251.008 124.4C251.008 120.24 251.914 116.64 253.728 113.6C255.594 110.56 257.994 108.24 260.928 106.64C263.861 105.04 266.928 104.24 270.128 104.24C271.194 104.24 272.421 104.32 273.808 104.48C275.248 104.64 276.448 104.827 277.408 105.04C277.834 103.6 278.554 102.48 279.568 101.68C280.634 100.88 282.208 100.48 284.288 100.48C287.754 100.48 290.261 102.64 291.808 106.96C293.408 111.28 294.208 116.613 294.208 122.96C294.208 125.947 294.048 128.773 293.728 131.44C292.928 138.96 290.288 144.88 285.808 149.2C281.328 153.52 275.541 155.68 268.448 155.68ZM271.408 129.2C273.061 129.2 274.501 128.613 275.728 127.44C276.954 126.213 277.568 124.773 277.568 123.12C277.568 121.467 276.954 120.027 275.728 118.8C274.501 117.573 273.061 116.96 271.408 116.96C269.754 116.96 268.314 117.573 267.088 118.8C265.914 120.027 265.328 121.467 265.328 123.12C265.328 124.773 265.914 126.213 267.088 127.44C268.314 128.613 269.754 129.2 271.408 129.2ZM350.982 141.92C344.902 141.92 339.702 140.853 335.382 138.72C331.062 136.587 327.755 133.547 325.462 129.6C323.222 125.6 322.102 120.88 322.102 115.44C322.102 108.933 323.462 103.467 326.182 99.04C328.955 94.6133 332.528 91.3333 336.902 89.2C341.275 87.0667 345.862 86 350.662 86C354.928 86 358.688 86.64 361.942 87.92C365.195 89.2 367.702 90.88 369.462 92.96C371.222 95.04 372.102 97.2267 372.102 99.52C372.102 102.827 371.248 105.2 369.542 106.64C367.835 108.027 365.728 108.72 363.222 108.72C362.048 108.72 361.008 108.613 360.102 108.4C359.248 108.187 358.342 107.893 357.382 107.52C356.315 107.147 355.355 106.88 354.502 106.72C353.702 106.507 352.688 106.4 351.462 106.4C347.942 106.4 345.168 107.467 343.142 109.6C341.115 111.68 340.102 114.64 340.102 118.48C340.102 121.733 341.088 124.24 343.062 126C345.035 127.76 347.488 128.64 350.422 128.64C352.075 128.64 353.515 128.427 354.742 128C355.968 127.573 356.902 127.093 357.542 126.56C358.182 126.027 358.502 125.6 358.502 125.28C354.608 125.28 351.648 124.827 349.622 123.92C347.595 123.013 346.582 121.44 346.582 119.2C346.582 116.96 347.355 115.227 348.902 114C350.448 112.72 353.062 112.08 356.742 112.08C360.528 112.08 363.488 112.533 365.622 113.44C367.755 114.293 369.275 115.653 370.182 117.52C371.088 119.333 371.542 121.76 371.542 124.8C371.542 127.893 370.608 130.747 368.742 133.36C366.928 135.973 364.422 138.053 361.222 139.6C358.075 141.147 354.662 141.92 350.982 141.92ZM385.446 141.84C382.779 141.84 380.779 140.853 379.446 138.88C378.113 136.907 377.206 134 376.726 130.16C376.299 126.267 376.086 120.853 376.086 113.92C376.086 107.253 376.246 102.053 376.566 98.32C376.939 94.5867 377.793 91.6 379.126 89.36C380.513 87.12 382.646 86 385.526 86C388.406 86 390.513 87.12 391.846 89.36C393.233 91.6 394.086 94.5867 394.406 98.32C394.779 102.053 394.966 107.253 394.966 113.92C394.966 120.48 394.673 125.787 394.086 129.84C393.553 133.84 392.593 136.853 391.206 138.88C389.819 140.853 387.899 141.84 385.446 141.84ZM417.414 142.08C413.574 142.133 410.134 141.333 407.094 139.68C404.107 138.027 401.761 135.76 400.054 132.88C398.401 129.947 397.521 126.693 397.414 123.12C397.361 119.547 398.187 116.347 399.894 113.52C401.601 110.693 403.974 108.453 407.014 106.8C410.107 105.147 413.574 104.32 417.414 104.32C421.147 104.32 424.507 105.12 427.494 106.72C430.534 108.32 432.934 110.56 434.694 113.44C436.454 116.32 437.387 119.547 437.494 123.12C437.547 126.587 436.721 129.76 435.014 132.64C433.307 135.467 430.907 137.733 427.814 139.44C424.774 141.147 421.307 142.027 417.414 142.08ZM417.654 130.4C419.094 130.4 420.347 129.84 421.414 128.72C422.481 127.6 423.014 126.293 423.014 124.8C423.014 123.307 422.481 122.027 421.414 120.96C420.347 119.84 419.094 119.28 417.654 119.28C416.214 119.28 414.961 119.84 413.894 120.96C412.827 122.027 412.294 123.307 412.294 124.8C412.294 126.293 412.827 127.6 413.894 128.72C414.961 129.84 416.214 130.4 417.654 130.4ZM462.874 142C453.167 142 446.901 139.04 444.074 133.12C441.301 127.147 439.914 121.093 439.914 114.96C439.914 110.427 440.314 105.947 441.114 101.52C441.967 97.0933 443.327 93.3867 445.194 90.4C447.061 87.4133 449.487 85.92 452.474 85.92C454.341 85.92 455.941 86.5067 457.274 87.68C458.607 88.8533 459.274 90.56 459.274 92.8C459.274 93.92 459.167 95.04 458.954 96.16C458.741 97.28 458.421 98.6667 457.994 100.32C457.887 100.64 457.674 101.44 457.354 102.72C457.087 104 456.901 105.2 456.794 106.32C459.141 105.04 461.807 104.4 464.794 104.4C467.781 104.4 470.554 105.067 473.114 106.4C475.727 107.733 477.834 109.787 479.434 112.56C481.087 115.28 481.914 118.613 481.914 122.56C481.914 125.92 481.141 129.093 479.594 132.08C478.047 135.013 475.807 137.413 472.874 139.28C469.994 141.093 466.661 142 462.874 142ZM462.394 129.36C463.834 129.36 465.087 128.827 466.154 127.76C467.274 126.64 467.834 125.333 467.834 123.84C467.834 122.347 467.274 121.04 466.154 119.92C465.087 118.8 463.834 118.24 462.394 118.24C460.954 118.24 459.701 118.8 458.634 119.92C457.567 121.04 457.034 122.347 457.034 123.84C457.034 125.333 457.567 126.64 458.634 127.76C459.701 128.827 460.954 129.36 462.394 129.36ZM498.767 142C494.607 142 491.194 141.067 488.527 139.2C485.861 137.28 484.527 134.533 484.527 130.96C484.527 127.867 485.887 125.413 488.607 123.6C491.327 121.787 494.714 120.88 498.767 120.88C500.261 120.88 501.647 121.013 502.927 121.28C504.261 121.493 505.167 121.76 505.647 122.08C505.647 120.747 505.087 119.653 503.967 118.8C502.847 117.893 501.141 117.44 498.847 117.44C497.834 117.44 497.007 117.52 496.367 117.68C495.727 117.84 495.034 118.08 494.287 118.4C493.541 118.72 492.847 118.96 492.207 119.12C491.621 119.28 490.821 119.36 489.807 119.36C488.101 119.36 486.767 118.933 485.807 118.08C484.847 117.173 484.367 115.813 484.367 114C484.367 111.92 485.114 110.16 486.607 108.72C488.154 107.28 490.074 106.213 492.367 105.52C494.661 104.773 496.954 104.4 499.247 104.4C503.781 104.4 507.567 105.253 510.607 106.96C513.701 108.613 515.967 110.827 517.407 113.6C518.901 116.373 519.647 119.44 519.647 122.8C519.647 124.613 519.487 126.293 519.167 127.84C518.901 129.387 518.527 130.587 518.047 131.44C518.794 132.08 519.354 132.827 519.727 133.68C520.154 134.533 520.367 135.413 520.367 136.32C520.367 137.867 519.834 139.2 518.767 140.32C517.754 141.44 516.394 142 514.687 142C513.407 142 512.367 141.813 511.567 141.44C510.767 141.067 509.914 140.48 509.007 139.68C507.674 140.48 506.207 141.067 504.607 141.44C503.061 141.813 501.114 142 498.767 142ZM500.367 133.92C501.487 133.92 502.367 133.68 503.007 133.2C503.701 132.72 504.047 132.133 504.047 131.44C504.047 130.747 503.701 130.16 503.007 129.68C502.367 129.2 501.487 128.96 500.367 128.96C499.247 128.96 498.341 129.2 497.647 129.68C497.007 130.16 496.687 130.747 496.687 131.44C496.687 132.133 497.007 132.72 497.647 133.2C498.341 133.68 499.247 133.92 500.367 133.92ZM533.727 141.84C531.061 141.84 529.061 140.853 527.727 138.88C526.394 136.907 525.487 134 525.007 130.16C524.581 126.267 524.367 120.853 524.367 113.92C524.367 107.253 524.527 102.053 524.847 98.32C525.221 94.5867 526.074 91.6 527.407 89.36C528.794 87.12 530.927 86 533.807 86C536.687 86 538.794 87.12 540.127 89.36C541.514 91.6 542.367 94.5867 542.687 98.32C543.061 102.053 543.247 107.253 543.247 113.92C543.247 120.48 542.954 125.787 542.367 129.84C541.834 133.84 540.874 136.853 539.487 138.88C538.101 140.853 536.181 141.84 533.727 141.84ZM592.282 142.08C588.762 142.08 585.376 141.6 582.122 140.64C578.922 139.627 576.309 138.24 574.282 136.48C572.256 134.667 571.242 132.613 571.242 130.32C571.242 128.133 571.909 126.4 573.242 125.12C574.576 123.84 576.256 123.2 578.282 123.2C579.616 123.2 580.762 123.387 581.722 123.76C582.736 124.08 583.829 124.56 585.002 125.2C585.856 125.627 586.576 125.973 587.162 126.24C587.802 126.453 588.469 126.56 589.162 126.56C590.922 126.56 591.802 125.867 591.802 124.48C591.802 123.947 591.429 123.493 590.682 123.12C589.936 122.693 588.682 122.133 586.922 121.44C583.776 120.213 581.216 119.013 579.242 117.84C576.202 116.027 574.096 114.053 572.922 111.92C571.802 109.787 571.242 107.12 571.242 103.92C571.242 100.827 572.229 97.92 574.202 95.2C576.176 92.4267 578.869 90.2133 582.282 88.56C585.696 86.9067 589.429 86.08 593.482 86.08C597.429 86.08 601.029 86.6933 604.282 87.92C607.589 89.0933 610.176 90.7467 612.042 92.88C613.962 94.96 614.922 97.28 614.922 99.84C614.922 102.773 614.042 104.987 612.282 106.48C610.576 107.92 608.656 108.64 606.522 108.64C604.762 108.64 603.429 108.533 602.522 108.32C601.669 108.107 600.816 107.813 599.962 107.44C599.269 107.173 598.682 106.987 598.202 106.88C597.722 106.72 597.056 106.64 596.202 106.64C595.509 106.64 594.842 106.88 594.202 107.36C593.616 107.787 593.322 108.4 593.322 109.2C593.322 109.787 593.669 110.293 594.362 110.72C595.056 111.093 595.856 111.44 596.762 111.76C597.669 112.08 598.309 112.32 598.682 112.48C603.642 114.293 607.296 116.373 609.642 118.72C611.989 121.013 613.162 124 613.162 127.68C613.162 132.213 611.322 135.76 607.642 138.32C604.016 140.827 598.896 142.08 592.282 142.08ZM657.157 107.36C657.157 110.133 655.851 112.027 653.237 113.04C650.624 114 647.051 114.507 642.517 114.56C642.464 115.893 642.437 118.053 642.437 121.04C642.437 124.08 642.651 126.24 643.077 127.52C643.344 128.427 643.744 129.013 644.277 129.28C644.864 129.547 645.717 129.733 646.837 129.84C647.211 129.893 647.611 129.973 648.037 130.08C648.517 130.133 649.051 130.213 649.637 130.32C650.864 130.587 651.824 131.253 652.517 132.32C653.211 133.333 653.557 134.64 653.557 136.24C653.557 138.053 652.624 139.467 650.757 140.48C648.891 141.493 646.331 142 643.077 142C640.091 142 637.237 141.147 634.517 139.44C631.797 137.68 629.931 135.333 628.917 132.4C627.851 129.253 627.317 123.307 627.317 114.56C623.584 114.453 620.571 113.973 618.277 113.12C616.037 112.213 614.917 110.613 614.917 108.32C614.917 105.44 615.984 103.52 618.117 102.56C620.251 101.547 623.317 101.013 627.317 100.96C627.477 96.6933 628.144 93.1467 629.317 90.32C630.491 87.44 632.597 86 635.637 86C638.731 86 640.731 87.3333 641.637 90C642.597 92.6667 643.024 96.32 642.917 100.96C647.771 100.907 651.344 101.28 653.637 102.08C655.984 102.88 657.157 104.64 657.157 107.36ZM672.361 142C668.201 142 664.788 141.067 662.121 139.2C659.454 137.28 658.121 134.533 658.121 130.96C658.121 127.867 659.481 125.413 662.201 123.6C664.921 121.787 668.308 120.88 672.361 120.88C673.854 120.88 675.241 121.013 676.521 121.28C677.854 121.493 678.761 121.76 679.241 122.08C679.241 120.747 678.681 119.653 677.561 118.8C676.441 117.893 674.734 117.44 672.441 117.44C671.428 117.44 670.601 117.52 669.961 117.68C669.321 117.84 668.628 118.08 667.881 118.4C667.134 118.72 666.441 118.96 665.801 119.12C665.214 119.28 664.414 119.36 663.401 119.36C661.694 119.36 660.361 118.933 659.401 118.08C658.441 117.173 657.961 115.813 657.961 114C657.961 111.92 658.708 110.16 660.201 108.72C661.748 107.28 663.668 106.213 665.961 105.52C668.254 104.773 670.548 104.4 672.841 104.4C677.374 104.4 681.161 105.253 684.201 106.96C687.294 108.613 689.561 110.827 691.001 113.6C692.494 116.373 693.241 119.44 693.241 122.8C693.241 124.613 693.081 126.293 692.761 127.84C692.494 129.387 692.121 130.587 691.641 131.44C692.388 132.08 692.948 132.827 693.321 133.68C693.748 134.533 693.961 135.413 693.961 136.32C693.961 137.867 693.428 139.2 692.361 140.32C691.348 141.44 689.988 142 688.281 142C687.001 142 685.961 141.813 685.161 141.44C684.361 141.067 683.508 140.48 682.601 139.68C681.268 140.48 679.801 141.067 678.201 141.44C676.654 141.813 674.708 142 672.361 142ZM673.961 133.92C675.081 133.92 675.961 133.68 676.601 133.2C677.294 132.72 677.641 132.133 677.641 131.44C677.641 130.747 677.294 130.16 676.601 129.68C675.961 129.2 675.081 128.96 673.961 128.96C672.841 128.96 671.934 129.2 671.241 129.68C670.601 130.16 670.281 130.747 670.281 131.44C670.281 132.133 670.601 132.72 671.241 133.2C671.934 133.68 672.841 133.92 673.961 133.92ZM705.74 142C702.326 142 700.033 140 698.86 136C697.74 132 697.18 126.48 697.18 119.44C697.18 116.24 697.313 113.573 697.58 111.44C697.9 109.253 698.62 107.413 699.74 105.92C700.913 104.373 702.7 103.6 705.1 103.6C706.593 103.6 707.9 103.947 709.02 104.64C710.193 105.333 710.94 106.32 711.26 107.6C712.433 106.533 713.953 105.733 715.82 105.2C717.686 104.667 719.686 104.4 721.82 104.4C723.526 104.4 725.26 104.827 727.02 105.68C728.833 106.533 730.326 107.707 731.5 109.2C732.726 110.64 733.34 112.213 733.34 113.92C733.34 115.627 732.726 117.147 731.5 118.48C730.326 119.76 728.753 120.4 726.78 120.4C726.14 120.4 725.526 120.32 724.94 120.16C724.406 120 723.926 119.84 723.5 119.68C722.433 119.253 721.58 119.04 720.94 119.04C718.86 119.04 717.02 119.867 715.42 121.52C713.873 123.12 713.1 125.2 713.1 127.76C713.1 130.587 712.993 132.933 712.78 134.8C712.566 136.667 711.926 138.347 710.86 139.84C709.793 141.28 708.086 142 705.74 142ZM749.883 142C745.19 142 741.457 141.227 738.683 139.68C735.91 138.133 734.523 136.133 734.523 133.68C734.523 132.08 735.057 130.853 736.123 130C737.243 129.093 738.657 128.64 740.363 128.64C741.323 128.64 742.097 128.773 742.683 129.04C743.27 129.307 743.857 129.68 744.443 130.16C744.87 130.533 745.217 130.8 745.483 130.96C745.803 131.12 746.177 131.2 746.603 131.2C747.723 131.2 748.283 130.8 748.283 130C748.283 129.253 747.99 128.693 747.403 128.32C746.817 127.893 745.803 127.387 744.363 126.8C743.03 126.267 742.15 125.893 741.723 125.68C739.27 124.507 737.457 123.12 736.283 121.52C735.11 119.92 734.523 118.213 734.523 116.4C734.523 114.373 735.243 112.453 736.683 110.64C738.177 108.773 740.257 107.28 742.923 106.16C745.643 104.987 748.763 104.4 752.283 104.4C755.323 104.4 758.07 104.827 760.523 105.68C763.03 106.533 765.003 107.707 766.443 109.2C767.883 110.64 768.603 112.24 768.603 114C768.603 115.653 768.07 116.907 767.003 117.76C765.99 118.613 764.603 119.04 762.843 119.04C762.15 119.04 761.59 118.987 761.163 118.88C760.79 118.72 760.283 118.48 759.643 118.16C759.27 117.947 758.87 117.76 758.443 117.6C758.07 117.44 757.643 117.36 757.163 117.36C756.737 117.36 756.363 117.52 756.043 117.84C755.723 118.107 755.563 118.453 755.563 118.88C755.563 119.68 756.15 120.267 757.323 120.64C760.417 121.653 762.897 122.933 764.763 124.48C766.683 126.027 767.643 128.16 767.643 130.88C767.643 134.347 766.017 137.067 762.763 139.04C759.563 141.013 755.27 142 749.883 142ZM787.93 139.12C786.277 140.773 784.33 141.6 782.09 141.6C779.85 141.6 777.904 140.773 776.25 139.12C774.597 137.467 773.77 135.52 773.77 133.28C773.77 131.04 774.597 129.093 776.25 127.44C777.904 125.787 779.85 124.96 782.09 124.96C784.33 124.96 786.277 125.787 787.93 127.44C789.584 129.093 790.41 131.04 790.41 133.28C790.41 135.52 789.584 137.467 787.93 139.12ZM133.085 204.64C133.085 208.533 132.499 211.973 131.325 214.96C130.205 217.947 128.605 220.453 126.525 222.48C128.285 225.2 129.165 227.84 129.165 230.4C129.165 232.587 128.312 234.4 126.605 235.84C124.952 237.28 123.059 238 120.925 238C119.699 238 118.579 237.813 117.565 237.44C116.552 237.067 115.459 236.427 114.285 235.52C113.272 234.72 112.312 233.627 111.405 232.24C110.499 230.853 109.779 229.413 109.245 227.92C107.485 227.707 105.725 227.253 103.965 226.56C104.285 228.267 104.445 229.573 104.445 230.48C104.445 235.547 101.805 238.08 96.5253 238.08C92.0986 238.08 88.9786 235.493 87.1653 230.32C85.352 225.147 84.4453 218.827 84.4453 211.36C84.4453 206.293 85.352 201.547 87.1653 197.12C89.032 192.64 91.8586 189.04 95.6453 186.32C99.432 183.547 104.045 182.16 109.485 182.16C113.859 182.16 117.832 183.093 121.405 184.96C124.979 186.773 127.805 189.387 129.885 192.8C132.019 196.213 133.085 200.16 133.085 204.64ZM103.165 208.4C103.165 210.213 103.885 211.813 105.325 213.2C106.765 214.533 108.419 215.2 110.285 215.2C112.205 215.2 113.859 214.533 115.245 213.2C116.685 211.813 117.405 210.213 117.405 208.4C117.405 206.533 116.685 204.933 115.245 203.6C113.859 202.213 112.205 201.52 110.285 201.52C108.419 201.52 106.765 202.213 105.325 203.6C103.885 204.987 103.165 206.587 103.165 208.4ZM153.117 238.08C149.277 238.133 145.837 237.333 142.797 235.68C139.811 234.027 137.464 231.76 135.757 228.88C134.104 225.947 133.224 222.693 133.117 219.12C133.064 215.547 133.891 212.347 135.597 209.52C137.304 206.693 139.677 204.453 142.717 202.8C145.811 201.147 149.277 200.32 153.117 200.32C156.851 200.32 160.211 201.12 163.197 202.72C166.237 204.32 168.637 206.56 170.397 209.44C172.157 212.32 173.091 215.547 173.197 219.12C173.251 222.587 172.424 225.76 170.717 228.64C169.011 231.467 166.611 233.733 163.517 235.44C160.477 237.147 157.011 238.027 153.117 238.08ZM153.357 226.4C154.797 226.4 156.051 225.84 157.117 224.72C158.184 223.6 158.717 222.293 158.717 220.8C158.717 219.307 158.184 218.027 157.117 216.96C156.051 215.84 154.797 215.28 153.357 215.28C151.917 215.28 150.664 215.84 149.597 216.96C148.531 218.027 147.997 219.307 147.997 220.8C147.997 222.293 148.531 223.6 149.597 224.72C150.664 225.84 151.917 226.4 153.357 226.4ZM195.617 238.08C191.777 238.133 188.337 237.333 185.297 235.68C182.311 234.027 179.964 231.76 178.257 228.88C176.604 225.947 175.724 222.693 175.617 219.12C175.564 215.547 176.391 212.347 178.097 209.52C179.804 206.693 182.177 204.453 185.217 202.8C188.311 201.147 191.777 200.32 195.617 200.32C199.351 200.32 202.711 201.12 205.697 202.72C208.737 204.32 211.137 206.56 212.897 209.44C214.657 212.32 215.591 215.547 215.697 219.12C215.751 222.587 214.924 225.76 213.217 228.64C211.511 231.467 209.111 233.733 206.017 235.44C202.977 237.147 199.511 238.027 195.617 238.08ZM195.857 226.4C197.297 226.4 198.551 225.84 199.617 224.72C200.684 223.6 201.217 222.293 201.217 220.8C201.217 219.307 200.684 218.027 199.617 216.96C198.551 215.84 197.297 215.28 195.857 215.28C194.417 215.28 193.164 215.84 192.097 216.96C191.031 218.027 190.497 219.307 190.497 220.8C190.497 222.293 191.031 223.6 192.097 224.72C193.164 225.84 194.417 226.4 195.857 226.4ZM256.298 203.36C256.298 206.133 254.991 208.027 252.378 209.04C249.764 210 246.191 210.507 241.658 210.56C241.604 211.893 241.578 214.053 241.578 217.04C241.578 220.08 241.791 222.24 242.218 223.52C242.484 224.427 242.884 225.013 243.418 225.28C244.004 225.547 244.858 225.733 245.978 225.84C246.351 225.893 246.751 225.973 247.178 226.08C247.658 226.133 248.191 226.213 248.778 226.32C250.004 226.587 250.964 227.253 251.658 228.32C252.351 229.333 252.698 230.64 252.698 232.24C252.698 234.053 251.764 235.467 249.898 236.48C248.031 237.493 245.471 238 242.218 238C239.231 238 236.378 237.147 233.658 235.44C230.938 233.68 229.071 231.333 228.058 228.4C226.991 225.253 226.458 219.307 226.458 210.56C222.724 210.453 219.711 209.973 217.418 209.12C215.178 208.213 214.058 206.613 214.058 204.32C214.058 201.44 215.124 199.52 217.258 198.56C219.391 197.547 222.458 197.013 226.458 196.96C226.618 192.693 227.284 189.147 228.458 186.32C229.631 183.44 231.738 182 234.778 182C237.871 182 239.871 183.333 240.778 186C241.738 188.667 242.164 192.32 242.058 196.96C246.911 196.907 250.484 197.28 252.778 198.08C255.124 198.88 256.298 200.64 256.298 203.36ZM276.4 238C272.454 238 268.96 237.227 265.92 235.68C262.88 234.133 260.507 231.973 258.8 229.2C257.147 226.373 256.32 223.2 256.32 219.68C256.32 216.213 257.147 213.013 258.8 210.08C260.507 207.147 262.854 204.8 265.84 203.04C268.827 201.28 272.214 200.4 276 200.4C279.414 200.4 282.427 201.093 285.04 202.48C287.654 203.867 289.654 205.707 291.04 208C292.427 210.24 293.12 212.587 293.12 215.04C293.12 219.04 291.6 221.973 288.56 223.84C285.574 225.653 282 226.56 277.84 226.56C275.067 226.56 272.72 226.213 270.8 225.52C272.4 228.133 275.04 229.44 278.72 229.44C280.214 229.44 281.814 229.253 283.52 228.88C284.16 228.72 284.774 228.64 285.36 228.64C286.534 228.64 287.467 228.933 288.16 229.52C288.907 230.107 289.28 230.907 289.28 231.92C289.28 233.573 288.267 235.013 286.24 236.24C284.214 237.413 280.934 238 276.4 238ZM271.04 215.76C271.52 216.507 272.16 217.067 272.96 217.44C273.814 217.76 274.747 217.92 275.76 217.92C276.934 217.92 277.947 217.653 278.8 217.12C279.707 216.587 280.16 215.893 280.16 215.04C280.16 214.08 279.76 213.253 278.96 212.56C278.214 211.867 277.12 211.52 275.68 211.52C274.24 211.52 273.094 211.973 272.24 212.88C271.44 213.733 271.04 214.693 271.04 215.76ZM314.579 238C310.792 238 307.432 237.093 304.499 235.28C301.619 233.413 299.406 231.013 297.859 228.08C296.312 225.093 295.539 221.92 295.539 218.56C295.539 214.613 296.339 211.28 297.939 208.56C299.592 205.787 301.699 203.733 304.259 202.4C306.872 201.067 309.672 200.4 312.659 200.4C315.646 200.4 318.312 201.04 320.659 202.32C320.552 201.2 320.339 200 320.019 198.72C319.752 197.44 319.566 196.64 319.459 196.32C319.032 194.667 318.712 193.28 318.499 192.16C318.286 191.04 318.179 189.92 318.179 188.8C318.179 186.56 318.846 184.853 320.179 183.68C321.512 182.507 323.112 181.92 324.979 181.92C327.966 181.92 330.392 183.413 332.259 186.4C334.126 189.387 335.459 193.093 336.259 197.52C337.112 201.947 337.539 206.427 337.539 210.96C337.539 217.093 336.126 223.147 333.299 229.12C330.526 235.04 324.286 238 314.579 238ZM315.059 225.36C316.499 225.36 317.752 224.827 318.819 223.76C319.886 222.64 320.419 221.333 320.419 219.84C320.419 218.347 319.886 217.04 318.819 215.92C317.752 214.8 316.499 214.24 315.059 214.24C313.619 214.24 312.339 214.8 311.219 215.92C310.152 217.04 309.619 218.347 309.619 219.84C309.619 221.333 310.152 222.64 311.219 223.76C312.339 224.827 313.619 225.36 315.059 225.36ZM374.899 199.2C372.286 199.2 370.072 198.267 368.259 196.4C366.446 194.48 365.539 192.16 365.539 189.44C365.539 186.773 366.446 184.507 368.259 182.64C370.072 180.72 372.286 179.76 374.899 179.76C377.459 179.76 379.646 180.72 381.459 182.64C383.326 184.507 384.259 186.773 384.259 189.44C384.259 192.16 383.326 194.48 381.459 196.4C379.646 198.267 377.459 199.2 374.899 199.2ZM374.899 238C372.712 238 371.086 237.387 370.019 236.16C369.006 234.88 368.312 232.987 367.939 230.48C367.619 227.92 367.459 224.293 367.459 219.6C367.459 215.653 367.646 212.533 368.019 210.24C368.446 207.947 369.192 206.24 370.259 205.12C371.326 204 372.872 203.44 374.899 203.44C377.086 203.44 378.686 204.08 379.699 205.36C380.766 206.587 381.459 208.48 381.779 211.04C382.152 213.547 382.339 217.147 382.339 221.84C382.339 225.787 382.126 228.907 381.699 231.2C381.326 233.493 380.606 235.2 379.539 236.32C378.472 237.44 376.926 238 374.899 238ZM419.092 238C417.172 238 415.732 237.467 414.772 236.4C413.866 235.333 413.306 234.027 413.092 232.48C412.879 230.933 412.772 228.933 412.772 226.48C412.772 223.333 412.346 220.907 411.492 219.2C410.639 217.493 409.252 216.64 407.332 216.64C405.572 216.64 404.239 217.493 403.332 219.2C402.479 220.853 402.052 223.147 402.052 226.08C402.052 228.907 401.972 231.04 401.812 232.48C401.652 233.92 401.119 235.2 400.212 236.32C399.306 237.387 397.812 237.92 395.732 237.92C392.692 237.92 390.559 235.973 389.332 232.08C388.106 228.133 387.492 223.52 387.492 218.24C387.492 205.44 390.186 199.04 395.572 199.04C397.066 199.04 398.292 199.413 399.252 200.16C400.212 200.853 400.879 201.867 401.252 203.2C401.946 202.453 403.012 201.787 404.452 201.2C405.946 200.613 407.519 200.32 409.172 200.32C415.039 200.32 419.412 202.453 422.292 206.72C425.226 210.987 426.692 216.773 426.692 224.08C426.692 228.4 426.132 231.813 425.012 234.32C423.892 236.773 421.919 238 419.092 238ZM482.12 237.84C476.893 237.84 472.2 236.8 468.04 234.72C463.933 232.587 460.68 229.44 458.28 225.28C455.88 221.067 454.68 215.92 454.68 209.84C454.68 204.933 455.8 200.347 458.04 196.08C460.28 191.813 463.373 188.4 467.32 185.84C471.266 183.28 475.693 182 480.6 182C485.24 182 489.373 182.88 493 184.64C496.626 186.347 499.426 188.693 501.4 191.68C503.426 194.667 504.44 198 504.44 201.68C504.44 204.027 503.746 206.053 502.36 207.76C501.026 209.467 499.106 210.32 496.6 210.32C494.733 210.32 493.293 210 492.28 209.36C491.266 208.72 490.2 207.733 489.08 206.4C487.96 205.067 486.866 204.08 485.8 203.44C484.786 202.747 483.293 202.4 481.32 202.4C478.813 202.4 476.653 203.36 474.84 205.28C473.08 207.147 472.2 209.44 472.2 212.16C472.2 215.093 472.946 217.573 474.44 219.6C475.986 221.573 478.066 222.56 480.68 222.56C482.706 222.56 484.306 222.267 485.48 221.68C486.706 221.093 487.986 220.24 489.32 219.12C490.44 218.16 491.453 217.44 492.36 216.96C493.32 216.48 494.493 216.24 495.88 216.24C498.013 216.24 499.693 216.907 500.92 218.24C502.146 219.52 502.76 221.2 502.76 223.28C502.76 225.733 501.853 228.08 500.04 230.32C498.28 232.56 495.826 234.373 492.68 235.76C489.533 237.147 486.013 237.84 482.12 237.84ZM524.587 238C520.693 238 517.28 237.04 514.347 235.12C511.413 233.147 509.147 230.427 507.547 226.96C506 223.44 505.227 219.387 505.227 214.8C505.227 210.32 505.947 206.8 507.387 204.24C508.827 201.68 510.827 200.4 513.387 200.4C517.92 200.4 520.187 202.72 520.187 207.36C520.187 208.32 520.16 209.173 520.107 209.92C520.053 210.613 520 211.227 519.947 211.76C519.733 213.893 519.627 215.6 519.627 216.88C519.627 219.227 520.107 221.013 521.067 222.24C522.027 223.467 523.2 224.08 524.587 224.08C526.027 224.08 527.2 223.493 528.107 222.32C529.067 221.093 529.547 219.28 529.547 216.88C529.547 215.173 529.467 213.6 529.307 212.16C529.253 211.68 529.2 210.987 529.147 210.08C529.093 209.12 529.067 208.24 529.067 207.44C529.067 202.747 531.333 200.4 535.867 200.4C538.427 200.4 540.4 201.68 541.787 204.24C543.227 206.747 543.947 210.267 543.947 214.8C543.947 221.893 542.293 227.547 538.987 231.76C535.68 235.92 530.88 238 524.587 238ZM556.774 237.84C554.107 237.84 552.107 236.853 550.774 234.88C549.441 232.907 548.534 230 548.054 226.16C547.627 222.267 547.414 216.853 547.414 209.92C547.414 203.253 547.574 198.053 547.894 194.32C548.267 190.587 549.121 187.6 550.454 185.36C551.841 183.12 553.974 182 556.854 182C559.734 182 561.841 183.12 563.174 185.36C564.561 187.6 565.414 190.587 565.734 194.32C566.107 198.053 566.294 203.253 566.294 209.92C566.294 216.48 566.001 221.787 565.414 225.84C564.881 229.84 563.921 232.853 562.534 234.88C561.147 236.853 559.227 237.84 556.774 237.84ZM609.345 203.36C609.345 206.133 608.038 208.027 605.425 209.04C602.811 210 599.238 210.507 594.705 210.56C594.651 211.893 594.625 214.053 594.625 217.04C594.625 220.08 594.838 222.24 595.265 223.52C595.531 224.427 595.931 225.013 596.465 225.28C597.051 225.547 597.905 225.733 599.025 225.84C599.398 225.893 599.798 225.973 600.225 226.08C600.705 226.133 601.238 226.213 601.825 226.32C603.051 226.587 604.011 227.253 604.705 228.32C605.398 229.333 605.745 230.64 605.745 232.24C605.745 234.053 604.811 235.467 602.945 236.48C601.078 237.493 598.518 238 595.265 238C592.278 238 589.425 237.147 586.705 235.44C583.985 233.68 582.118 231.333 581.105 228.4C580.038 225.253 579.505 219.307 579.505 210.56C575.771 210.453 572.758 209.973 570.465 209.12C568.225 208.213 567.105 206.613 567.105 204.32C567.105 201.44 568.171 199.52 570.305 198.56C572.438 197.547 575.505 197.013 579.505 196.96C579.665 192.693 580.331 189.147 581.505 186.32C582.678 183.44 584.785 182 587.825 182C590.918 182 592.918 183.333 593.825 186C594.785 188.667 595.211 192.32 595.105 196.96C599.958 196.907 603.531 197.28 605.825 198.08C608.171 198.88 609.345 200.64 609.345 203.36ZM629.508 238C625.615 238 622.202 237.04 619.268 235.12C616.335 233.147 614.068 230.427 612.468 226.96C610.922 223.44 610.148 219.387 610.148 214.8C610.148 210.32 610.868 206.8 612.308 204.24C613.748 201.68 615.748 200.4 618.308 200.4C622.842 200.4 625.108 202.72 625.108 207.36C625.108 208.32 625.082 209.173 625.028 209.92C624.975 210.613 624.922 211.227 624.868 211.76C624.655 213.893 624.548 215.6 624.548 216.88C624.548 219.227 625.028 221.013 625.988 222.24C626.948 223.467 628.122 224.08 629.508 224.08C630.948 224.08 632.122 223.493 633.028 222.32C633.988 221.093 634.468 219.28 634.468 216.88C634.468 215.173 634.388 213.6 634.228 212.16C634.175 211.68 634.122 210.987 634.068 210.08C634.015 209.12 633.988 208.24 633.988 207.44C633.988 202.747 636.255 200.4 640.788 200.4C643.348 200.4 645.322 201.68 646.708 204.24C648.148 206.747 648.868 210.267 648.868 214.8C648.868 221.893 647.215 227.547 643.908 231.76C640.602 235.92 635.802 238 629.508 238ZM660.115 238C656.701 238 654.408 236 653.235 232C652.115 228 651.555 222.48 651.555 215.44C651.555 212.24 651.688 209.573 651.955 207.44C652.275 205.253 652.995 203.413 654.115 201.92C655.288 200.373 657.075 199.6 659.475 199.6C660.968 199.6 662.275 199.947 663.395 200.64C664.568 201.333 665.315 202.32 665.635 203.6C666.808 202.533 668.328 201.733 670.195 201.2C672.061 200.667 674.061 200.4 676.195 200.4C677.901 200.4 679.635 200.827 681.395 201.68C683.208 202.533 684.701 203.707 685.875 205.2C687.101 206.64 687.715 208.213 687.715 209.92C687.715 211.627 687.101 213.147 685.875 214.48C684.701 215.76 683.128 216.4 681.155 216.4C680.515 216.4 679.901 216.32 679.315 216.16C678.781 216 678.301 215.84 677.875 215.68C676.808 215.253 675.955 215.04 675.315 215.04C673.235 215.04 671.395 215.867 669.795 217.52C668.248 219.12 667.475 221.2 667.475 223.76C667.475 226.587 667.368 228.933 667.155 230.8C666.941 232.667 666.301 234.347 665.235 235.84C664.168 237.28 662.461 238 660.115 238ZM707.807 238C703.86 238 700.367 237.227 697.327 235.68C694.287 234.133 691.913 231.973 690.207 229.2C688.553 226.373 687.727 223.2 687.727 219.68C687.727 216.213 688.553 213.013 690.207 210.08C691.913 207.147 694.26 204.8 697.247 203.04C700.233 201.28 703.62 200.4 707.407 200.4C710.82 200.4 713.833 201.093 716.447 202.48C719.06 203.867 721.06 205.707 722.447 208C723.833 210.24 724.527 212.587 724.527 215.04C724.527 219.04 723.007 221.973 719.967 223.84C716.98 225.653 713.407 226.56 709.247 226.56C706.473 226.56 704.127 226.213 702.207 225.52C703.807 228.133 706.447 229.44 710.127 229.44C711.62 229.44 713.22 229.253 714.927 228.88C715.567 228.72 716.18 228.64 716.767 228.64C717.94 228.64 718.873 228.933 719.567 229.52C720.313 230.107 720.687 230.907 720.687 231.92C720.687 233.573 719.673 235.013 717.647 236.24C715.62 237.413 712.34 238 707.807 238ZM702.447 215.76C702.927 216.507 703.567 217.067 704.367 217.44C705.22 217.76 706.153 217.92 707.167 217.92C708.34 217.92 709.353 217.653 710.207 217.12C711.113 216.587 711.567 215.893 711.567 215.04C711.567 214.08 711.167 213.253 710.367 212.56C709.62 211.867 708.527 211.52 707.087 211.52C705.647 211.52 704.5 211.973 703.647 212.88C702.847 213.733 702.447 214.693 702.447 215.76ZM743.868 235.12C742.214 236.773 740.268 237.6 738.028 237.6C735.788 237.6 733.841 236.773 732.188 235.12C730.534 233.467 729.708 231.52 729.708 229.28C729.708 227.04 730.534 225.093 732.188 223.44C733.841 221.787 735.788 220.96 738.028 220.96C740.268 220.96 742.214 221.787 743.868 223.44C745.521 225.093 746.348 227.04 746.348 229.28C746.348 231.52 745.521 233.467 743.868 235.12Z" fill="white"/>
</svg>
